<svg xmlns="http://www.w3.org/2000/svg" version="1.1" xmlns:xlink="http://www.w3.org/1999/xlink" width="203.96201" height="203.96201"><svg version="1.1" id="SvgjsSvg1036" x="0px" y="0px" width="203.96201" height="203.96201" viewBox="0 0 203.962 203.962" enable-background="new 0 0 595.28 841.89" xml:space="preserve" sodipodi:docname="logo.svg" inkscape:version="1.1.1 (3bf5ae0d25, 2021-09-20)" xmlns:inkscape="http://www.inkscape.org/namespaces/inkscape" xmlns:sodipodi="http://sodipodi.sourceforge.net/DTD/sodipodi-0.dtd" xmlns="http://www.w3.org/2000/svg" xmlns:svg="http://www.w3.org/2000/svg"><defs id="SvgjsDefs1035"></defs><sodipodi:namedview id="SvgjsSodipodi:namedview1034" pagecolor="#ffffff" bordercolor="#666666" borderopacity="1.0" inkscape:pageshadow="2" inkscape:pageopacity="0.0" inkscape:pagecheckerboard="0" showgrid="false" fit-margin-top="0" fit-margin-left="0" fit-margin-right="0" fit-margin-bottom="0" inkscape:zoom="0.9882526" inkscape:cx="293.95318" inkscape:cy="340.49999" inkscape:window-width="1920" inkscape:window-height="1017" inkscape:window-x="-8" inkscape:window-y="-8" inkscape:window-maximized="1" inkscape:current-layer="Calque_1"></sodipodi:namedview>
<circle fill="#3e393c" cx="101.981" cy="101.981" r="101.981" id="SvgjsCircle1033"></circle>
<g id="SvgjsG1032" transform="translate(-4.0379944,-81.195999)">
	<g id="SvgjsG1031">
		<path fill="#ffffff" d="m 182.135,186.074 c -0.512,-2.324 -1.3,-4.471 -2.364,-6.439 -1.064,-1.969 -2.442,-3.78 -4.137,-5.435 -1.694,-1.655 -3.329,-2.796 -4.905,-3.427 -1.577,-0.63 -3.349,-0.945 -5.319,-0.945 -1.734,0 -3.488,0.296 -5.26,0.887 -1.773,0.591 -3.527,1.616 -5.26,3.074 -1.734,1.458 -3.27,3.409 -4.609,5.854 -1.576,2.837 -2.561,5.636 -2.955,8.395 l -5.438,37.676 c -2.993,-0.63 -5.159,-1.456 -6.498,-2.481 -1.89,-1.495 -3.406,-3.621 -4.548,-6.377 -1.142,-2.755 -1.712,-6.181 -1.712,-10.275 0,-2.519 0.254,-5.333 0.767,-8.444 0.512,-3.111 1.24,-6.083 2.186,-8.918 2.284,-6.378 5.867,-11.141 10.75,-14.291 1.338,-0.708 2.717,-1.418 4.135,-2.127 l 0.354,-2.126 c -1.891,0 -3.879,0.257 -5.965,0.769 -2.087,0.513 -4.114,1.318 -6.083,2.421 -0.42,0.249 -0.83,0.497 -1.23,0.742 -1.786,0.316 -5.049,2.664 -9.78,7.125 l -0.399,0.358 c -7.385,6.753 -13.242,11.595 -17.655,14.474 -4.379,2.901 -8.283,4.451 -11.737,4.641 -3.182,0.173 -5.985,-0.612 -8.418,-2.362 -2.441,-1.753 -4.243,-4.275 -5.406,-7.562 -0.497,-1.409 -0.817,-2.87 -0.955,-4.383 -0.137,-1.512 -0.093,-3.164 0.13,-4.954 6.065,-3.708 11.803,-8.14 17.233,-13.284 5.517,-5.09 10.885,-10.99 16.132,-17.691 -0.275,1.938 -0.369,3.604 -0.283,4.998 0.086,1.394 0.326,2.717 0.715,3.964 0.94,3.006 2.652,5.349 5.133,7.026 2.471,1.673 5.385,2.457 8.745,2.362 7.004,-0.199 13.875,-4.325 20.743,-12.295 7.042,-7.852 10.883,-16.621 11.443,-26.356 2.633,1.201 4.603,2.502 5.912,3.911 1.303,1.406 2.241,3.241 2.812,5.51 0.883,3.511 0.508,7.034 -1.105,10.582 -1.594,3.563 -4.374,7.055 -8.332,10.483 -0.644,0.62 -1.535,1.385 -2.674,2.293 -1.676,1.258 -2.43,2.189 -2.265,2.793 0.046,0.165 0.208,0.341 0.489,0.527 0.28,0.187 0.536,0.276 0.763,0.27 0.514,-0.014 1.638,-0.583 3.378,-1.705 1.746,-1.117 3.471,-2.492 5.18,-4.122 3.398,-3.185 5.779,-6.59 7.134,-10.222 1.374,-3.617 1.604,-7.306 0.668,-11.077 -0.75,-3.018 -2.133,-5.537 -4.157,-7.56 -2.03,-2.028 -4.696,-3.538 -8,-4.531 -0.11,-0.432 -0.216,-0.947 -0.309,-1.544 -0.095,-0.598 -0.162,-0.978 -0.204,-1.14 -1.159,-4.502 -3.568,-7.929 -7.242,-10.286 -3.689,-2.368 -8.536,-3.611 -14.524,-3.719 -8.864,-0.16 -18.462,2.612 -28.667,8.398 -10.038,5.895 -18.892,14.051 -26.48,24.521 -4.348,6.388 -7.374,12.716 -9.109,18.964 -1.678,6.286 -2.069,12.403 -1.202,18.337 -1.833,0.607 -3.507,1.06 -5.021,1.355 -1.516,0.298 -3.002,0.475 -4.461,0.529 -5.334,0.204 -10.313,-1.366 -14.953,-4.725 -4.666,-3.375 -8.086,-7.871 -10.236,-13.473 -3.215,-8.372 -2.077,-16.729 3.537,-24.992 5.773,-8.155 14.762,-13.866 26.92,-17.161 -0.141,-0.058 -0.302,-0.089 -0.481,-0.09 -3.296,-0.493 -5.638,-0.748 -7.023,-0.761 -5.063,-0.046 -9.944,1.084 -14.621,3.407 -4.646,2.34 -8.452,5.596 -11.408,9.775 -2.709,3.967 -4.288,8.342 -4.747,13.121 -0.435,4.794 0.284,9.587 2.137,14.362 2.768,7.134 7.184,12.899 13.221,17.275 5.99,4.347 12.322,6.371 19.038,6.098 1.456,-0.058 2.891,-0.206 4.311,-0.444 1.418,-0.235 2.905,-0.564 4.458,-0.985 0.148,0.412 0.271,0.915 0.371,1.508 0.064,0.18 0.106,0.298 0.127,0.354 l 0.636,1.77 c 1.8,5.012 4.665,8.966 8.583,11.849 3.894,2.871 8.157,4.166 12.803,3.9 3.77,-0.214 7.813,-1.564 12.15,-4.037 4.149,-2.331 8.396,-5.578 12.76,-9.704 -1.288,2.825 -2.147,5.796 -2.567,8.917 -4.476,12.3 -9.186,21.739 -14.243,28.231 -6.128,8.196 -13.755,12.748 -23.006,13.573 -7.738,0.691 -14.997,-1.028 -21.822,-5.191 -6.884,-4.198 -11.734,-9.815 -14.512,-16.819 -2.318,-5.845 -2.338,-11 -0.027,-15.44 2.351,-4.415 6.279,-6.746 11.752,-7.014 3.649,-0.178 6.911,0.605 9.775,2.341 2.856,1.731 4.857,4.167 6.013,7.313 1.506,4.1 1.007,8.129 -1.467,12.108 -2.441,4.002 -6.321,6.919 -11.659,8.739 1.229,0.344 2.417,0.581 3.562,0.708 1.145,0.129 2.223,0.155 3.235,0.077 4.947,-0.377 8.594,-2.6 10.967,-6.651 2.408,-4.029 2.724,-8.521 0.921,-13.49 -1.523,-4.198 -4.418,-7.617 -8.698,-10.266 -4.303,-2.665 -8.877,-3.891 -13.704,-3.667 -6.545,0.305 -11.155,2.86 -13.794,7.692 -2.59,4.863 -2.504,10.724 0.223,17.557 3.313,8.302 8.925,14.811 16.786,19.492 7.786,4.632 16.36,6.495 25.783,5.625 7.392,-0.683 14.004,-2.962 19.878,-6.809 5.932,-3.806 10.516,-8.706 13.762,-14.689 0.823,-1.539 1.648,-3.414 2.475,-5.624 1.741,3.771 4.401,6.762 7.997,8.956 2.677,1.655 7.207,3.11 13.586,4.371 l -4.467,24.907 7.415,-0.004 4.488,-25.021 c 4.098,0 8.668,-1.339 13.713,-4.018 3.861,-2.047 7.052,-4.312 9.576,-6.793 2.521,-2.48 4.748,-5.513 6.679,-9.098 1.93,-3.583 3.211,-7.227 3.841,-10.929 0.236,-1.418 0.395,-2.481 0.473,-3.19 0.078,-0.709 0.119,-1.734 0.119,-3.073 -0.001,-2.362 -0.258,-4.705 -0.77,-7.029 z m -36.082,-31.588 c -6.472,7.783 -13.075,11.802 -19.933,11.98 -2.058,0.054 -3.99,-0.607 -5.796,-1.983 -1.812,-1.38 -3.033,-3.087 -3.663,-5.125 -1.032,-3.336 -0.924,-6.762 0.34,-10.265 1.284,-3.489 3.676,-6.874 7.191,-10.147 3.849,-3.64 7.874,-6.335 12.051,-8.099 4.196,-1.75 8.549,-2.609 13.041,-2.587 1.138,0.005 2.267,0.094 3.388,0.261 1.121,0.169 2.293,0.419 3.515,0.752 -0.094,9.149 -3.498,17.538 -10.134,25.213 z m -60.386,4 c 2.471,-5.74 5.685,-11.274 9.655,-16.603 7.144,-9.544 14.445,-16.678 21.808,-21.462 7.462,-4.716 14.522,-6.998 21.106,-6.89 4.631,0.075 8.451,1.09 11.454,3.039 2.991,1.942 4.944,4.677 5.867,8.214 l 0.553,2.122 c -2.261,-0.394 -3.921,-0.663 -4.978,-0.808 -1.057,-0.143 -2.006,-0.219 -2.847,-0.224 -10.931,-0.075 -23.251,7.058 -36.501,21.701 -2.666,3.104 -4.675,5.444 -6.044,7.009 -4.44,5.192 -8.797,9.71 -13.092,13.539 -4.249,3.859 -8.335,6.954 -12.279,9.268 1.122,-6.824 2.887,-13.125 5.298,-18.905 z m 85.898,44.997 c -0.475,2.602 -0.91,4.255 -1.305,4.965 -1.266,3.073 -2.491,5.476 -3.677,7.21 -0.554,0.788 -1.622,1.97 -3.202,3.546 -2.689,2.758 -5.695,4.689 -9.016,5.791 -0.08,0 -1.819,0.355 -5.219,1.064 l 4.409,-32.357 c 0.236,-2.131 0.769,-4.5 1.6,-7.105 0.829,-2.604 1.718,-4.5 2.666,-5.685 0.631,-0.71 1.343,-1.263 2.133,-1.658 0.79,-0.395 1.698,-0.592 2.726,-0.592 0.71,0 1.58,0.237 2.607,0.709 1.026,0.473 2.152,1.556 3.376,3.251 1.225,1.695 2.074,3.369 2.548,5.023 0.474,1.654 0.77,2.936 0.889,3.841 0.118,0.906 0.178,2.384 0.178,4.433 -0.001,2.442 -0.239,4.964 -0.713,7.564 z" id="SvgjsPath1030"></path>
	</g>
</g>





</svg><style>@media (prefers-color-scheme: light) { :root { filter: none; } }
@media (prefers-color-scheme: dark) { :root { filter: none; } }
</style></svg>