<?xml version="1.0" encoding="UTF-8" standalone="no"?>
<svg
  viewBox="0 0 216 216"
  version="1.1"
  id="svg14"
  xmlns="http://www.w3.org/2000/svg"
  xmlns:svg="http://www.w3.org/2000/svg">
  <g transform="matrix(1.714204,0,0,1.714204,-77.134026,-77.134026)">
    <path
      d="M 156.99,149.94 C 129.98,153.79 90,161.63 45,171 49.98,134.73 57.76,97.56 66.99,59.94 102.36,52.26 137.03,47.27 171,45 c -6.98,33.66 -11.53,68.71 -14.01,104.94 z" />
    <path
      fill="#fff"
      d="m 148.3,109.53 c -0.27,-1.23 -0.69,-2.37 -1.25,-3.41 -0.56,-1.04 -1.29,-2 -2.19,-2.88 -0.9,-0.88 -1.76,-1.48 -2.6,-1.81 -0.83,-0.33 -1.77,-0.5 -2.82,-0.5 -0.92,0 -1.85,0.16 -2.79,0.47 -0.94,0.31 -1.87,0.86 -2.79,1.63 -0.92,0.77 -1.73,1.81 -2.44,3.1 -0.83,1.5 -1.36,2.98 -1.56,4.45 l -2.88,19.95 c -1.58,-0.33 -2.73,-0.77 -3.44,-1.31 -1,-0.79 -1.8,-1.92 -2.41,-3.38 -0.6,-1.46 -0.91,-3.27 -0.91,-5.44 0,-1.33 0.13,-2.82 0.41,-4.47 0.27,-1.65 0.66,-3.22 1.16,-4.72 1.21,-3.38 3.11,-5.9 5.69,-7.57 0.71,-0.37 1.44,-0.75 2.19,-1.13 l 0.19,-1.13 c -1,0 -2.05,0.14 -3.16,0.41 -1.11,0.27 -2.18,0.7 -3.22,1.28 -0.22,0.13 -0.44,0.26 -0.65,0.39 -0.95,0.17 -2.67,1.41 -5.18,3.77 l -0.21,0.19 c -3.91,3.58 -7.01,6.14 -9.35,7.66 -2.32,1.54 -4.39,2.36 -6.22,2.46 -1.68,0.09 -3.17,-0.32 -4.46,-1.25 -1.29,-0.93 -2.25,-2.26 -2.86,-4 -0.26,-0.75 -0.43,-1.52 -0.51,-2.32 -0.07,-0.8 -0.05,-1.68 0.07,-2.62 3.21,-1.96 6.25,-4.31 9.13,-7.03 2.92,-2.7 5.76,-5.82 8.54,-9.37 -0.15,1.03 -0.2,1.91 -0.15,2.65 0.05,0.74 0.17,1.44 0.38,2.1 0.5,1.59 1.4,2.83 2.72,3.72 1.31,0.89 2.85,1.3 4.63,1.25 3.71,-0.11 7.35,-2.29 10.98,-6.51 3.73,-4.16 5.76,-8.8 6.06,-13.96 1.39,0.64 2.44,1.33 3.13,2.07 0.69,0.74 1.19,1.72 1.49,2.92 0.47,1.86 0.27,3.72 -0.59,5.6 -0.84,1.89 -2.32,3.74 -4.41,5.55 -0.34,0.33 -0.81,0.73 -1.42,1.21 -0.89,0.67 -1.29,1.16 -1.2,1.48 0.02,0.09 0.11,0.18 0.26,0.28 0.15,0.1 0.28,0.15 0.4,0.14 0.27,0 0.87,-0.31 1.79,-0.9 0.92,-0.59 1.84,-1.32 2.74,-2.18 1.8,-1.69 3.06,-3.49 3.78,-5.41 0.73,-1.92 0.85,-3.87 0.35,-5.87 -0.4,-1.6 -1.13,-2.93 -2.2,-4 -1.08,-1.07 -2.49,-1.87 -4.24,-2.4 -0.06,-0.23 -0.11,-0.5 -0.16,-0.82 -0.05,-0.32 -0.09,-0.52 -0.11,-0.6 -0.61,-2.38 -1.89,-4.2 -3.83,-5.45 -1.95,-1.25 -4.52,-1.91 -7.69,-1.97 -4.69,-0.08 -9.78,1.38 -15.18,4.45 -5.32,3.12 -10,7.44 -14.02,12.98 -2.3,3.38 -3.9,6.73 -4.82,10.04 -0.89,3.33 -1.1,6.57 -0.64,9.71 -0.97,0.32 -1.86,0.56 -2.66,0.72 -0.8,0.16 -1.59,0.25 -2.36,0.28 -2.82,0.11 -5.46,-0.72 -7.92,-2.5 -2.47,-1.79 -4.28,-4.17 -5.42,-7.13 -1.7,-4.43 -1.1,-8.86 1.87,-13.23 3.06,-4.32 7.82,-7.34 14.25,-9.09 -0.07,-0.03 -0.16,-0.05 -0.25,-0.05 -1.75,-0.26 -2.99,-0.4 -3.72,-0.4 -2.68,-0.02 -5.27,0.57 -7.74,1.8 -2.46,1.24 -4.48,2.96 -6.04,5.18 -1.43,2.1 -2.27,4.42 -2.51,6.95 -0.23,2.54 0.15,5.08 1.13,7.6 1.47,3.78 3.8,6.83 7,9.15 3.17,2.3 6.52,3.37 10.08,3.23 0.77,-0.03 1.53,-0.11 2.28,-0.24 0.75,-0.12 1.54,-0.3 2.36,-0.52 0.08,0.22 0.14,0.48 0.2,0.8 0.03,0.1 0.06,0.16 0.07,0.19 l 0.34,0.94 c 0.95,2.65 2.47,4.75 4.54,6.27 2.06,1.52 4.32,2.21 6.78,2.07 2,-0.11 4.14,-0.83 6.43,-2.14 2.2,-1.23 4.45,-2.95 6.76,-5.14 -0.68,1.5 -1.14,3.07 -1.36,4.72 -2.37,6.51 -4.86,11.51 -7.54,14.95 -3.24,4.34 -7.28,6.75 -12.18,7.19 -4.1,0.37 -7.94,-0.54 -11.56,-2.75 -3.65,-2.22 -6.21,-5.2 -7.68,-8.91 -1.23,-3.09 -1.24,-5.82 -0.01,-8.18 1.24,-2.34 3.32,-3.57 6.22,-3.71 1.93,-0.09 3.66,0.32 5.18,1.24 1.51,0.92 2.57,2.21 3.18,3.87 0.8,2.17 0.53,4.3 -0.78,6.41 -1.29,2.12 -3.35,3.66 -6.17,4.63 0.65,0.18 1.28,0.31 1.89,0.38 0.61,0.07 1.18,0.08 1.71,0.04 2.62,-0.2 4.55,-1.38 5.81,-3.52 1.27,-2.13 1.44,-4.51 0.49,-7.14 -0.81,-2.22 -2.34,-4.03 -4.61,-5.44 -2.28,-1.41 -4.7,-2.06 -7.26,-1.94 -3.47,0.16 -5.91,1.51 -7.3,4.07 -1.37,2.58 -1.33,5.68 0.12,9.3 1.75,4.4 4.73,7.84 8.89,10.32 4.12,2.45 8.66,3.44 13.65,2.98 3.91,-0.36 7.42,-1.57 10.53,-3.61 3.14,-2.02 5.57,-4.61 7.29,-7.78 0.44,-0.81 0.87,-1.81 1.31,-2.98 0.92,2 2.33,3.58 4.23,4.74 1.42,0.88 3.82,1.65 7.19,2.31 l -2.37,13.19 h 3.93 c 0,0 2.38,-13.25 2.38,-13.25 2.17,0 4.59,-0.71 7.26,-2.13 2.04,-1.08 3.73,-2.28 5.07,-3.6 1.34,-1.31 2.51,-2.92 3.54,-4.82 1.02,-1.9 1.7,-3.83 2.03,-5.79 0.12,-0.75 0.21,-1.31 0.25,-1.69 0.04,-0.38 0.06,-0.92 0.06,-1.63 0,-1.25 -0.14,-2.49 -0.41,-3.72 z M 129.2,92.81 c -3.43,4.12 -6.92,6.25 -10.55,6.34 -1.09,0.03 -2.11,-0.32 -3.07,-1.05 -0.96,-0.73 -1.61,-1.63 -1.94,-2.71 -0.55,-1.77 -0.49,-3.58 0.18,-5.44 0.68,-1.85 1.95,-3.64 3.81,-5.37 2.04,-1.93 4.17,-3.35 6.38,-4.29 2.22,-0.93 4.53,-1.38 6.91,-1.37 0.6,0 1.2,0.05 1.79,0.14 0.59,0.09 1.21,0.22 1.86,0.4 -0.05,4.84 -1.85,9.29 -5.37,13.35 z m -31.98,2.12 c 1.31,-3.04 3.01,-5.97 5.11,-8.79 3.78,-5.05 7.65,-8.83 11.55,-11.36 3.95,-2.5 7.69,-3.71 11.18,-3.65 2.45,0.04 4.47,0.58 6.06,1.61 1.58,1.03 2.62,2.48 3.11,4.35 l 0.29,1.12 c -1.2,-0.21 -2.08,-0.35 -2.64,-0.43 -0.56,-0.08 -1.06,-0.12 -1.51,-0.12 -5.79,-0.04 -12.31,3.74 -19.33,11.49 -1.41,1.64 -2.48,2.88 -3.2,3.71 -2.35,2.75 -4.66,5.14 -6.93,7.17 -2.25,2.04 -4.41,3.68 -6.5,4.91 0.59,-3.61 1.53,-6.95 2.81,-10.01 z m 45.49,23.82 c -0.25,1.38 -0.48,2.25 -0.69,2.63 -0.67,1.63 -1.32,2.9 -1.95,3.82 -0.29,0.42 -0.86,1.04 -1.7,1.88 -1.42,1.46 -3.02,2.48 -4.77,3.07 -0.04,0 -0.96,0.19 -2.76,0.56 l 2.33,-17.13 c 0.12,-1.13 0.41,-2.38 0.85,-3.76 0.44,-1.38 0.91,-2.38 1.41,-3.01 0.33,-0.38 0.71,-0.67 1.13,-0.88 0.42,-0.21 0.9,-0.31 1.44,-0.31 0.38,0 0.84,0.13 1.38,0.38 0.54,0.25 1.14,0.82 1.79,1.72 0.65,0.9 1.1,1.78 1.35,2.66 0.25,0.88 0.41,1.55 0.47,2.03 0.06,0.48 0.09,1.26 0.09,2.35 0,1.29 -0.13,2.63 -0.38,4.01 z"/>
  </g>
</svg>
